<mxfile host="65bd71144e">
    <diagram id="PwsL4PzN5joI9R-oSL1_" name="ページ1">
        <mxGraphModel dx="820" dy="408" grid="1" gridSize="10" guides="1" tooltips="1" connect="1" arrows="1" fold="1" page="1" pageScale="1" pageWidth="827" pageHeight="1169" math="0" shadow="0">
            <root>
                <mxCell id="0"/>
                <mxCell id="1" parent="0"/>
                <mxCell id="3" style="edgeStyle=none;html=1;exitX=0.5;exitY=0;exitDx=0;exitDy=0;startArrow=open;startFill=0;endArrow=none;endFill=0;fontFamily=Lucida Console;fontSize=16;" parent="1" source="32" edge="1">
                    <mxGeometry relative="1" as="geometry">
                        <mxPoint x="280" y="170" as="targetPoint"/>
                        <mxPoint x="280" y="170" as="sourcePoint"/>
                    </mxGeometry>
                </mxCell>
                <mxCell id="29" value="T" style="text;html=1;align=center;verticalAlign=middle;resizable=0;points=[];autosize=1;strokeColor=none;fillColor=none;fontSize=16;fontFamily=Lucida Console;" parent="1" vertex="1">
                    <mxGeometry x="280" y="310" width="30" height="30" as="geometry"/>
                </mxCell>
                <mxCell id="31" value="F" style="text;html=1;align=center;verticalAlign=middle;resizable=0;points=[];autosize=1;strokeColor=none;fillColor=none;fontSize=16;fontFamily=Lucida Console;" parent="1" vertex="1">
                    <mxGeometry x="340" y="265" width="30" height="30" as="geometry"/>
                </mxCell>
                <mxCell id="32" value="初期設定式" style="rounded=0;whiteSpace=wrap;html=1;fontSize=16;fontFamily=Lucida Console;" vertex="1" parent="1">
                    <mxGeometry x="230" y="200" width="100" height="30" as="geometry"/>
                </mxCell>
                <mxCell id="38" style="edgeStyle=none;shape=connector;rounded=1;html=1;exitX=0.5;exitY=1;exitDx=0;exitDy=0;exitPerimeter=0;entryX=0.5;entryY=0;entryDx=0;entryDy=0;strokeColor=default;align=center;verticalAlign=middle;fontFamily=Helvetica;fontSize=11;fontColor=default;labelBackgroundColor=default;endArrow=open;endFill=0;" edge="1" parent="1" source="33" target="34">
                    <mxGeometry relative="1" as="geometry"/>
                </mxCell>
                <mxCell id="41" style="edgeStyle=orthogonalEdgeStyle;shape=connector;curved=0;rounded=0;html=1;exitX=1;exitY=0.5;exitDx=0;exitDy=0;exitPerimeter=0;strokeColor=default;align=center;verticalAlign=middle;fontFamily=Helvetica;fontSize=11;fontColor=default;labelBackgroundColor=default;endArrow=open;endFill=0;" edge="1" parent="1" source="33">
                    <mxGeometry relative="1" as="geometry">
                        <mxPoint x="280" y="480" as="targetPoint"/>
                        <Array as="points">
                            <mxPoint x="370" y="293"/>
                            <mxPoint x="370" y="460"/>
                            <mxPoint x="280" y="460"/>
                        </Array>
                    </mxGeometry>
                </mxCell>
                <mxCell id="33" value="&lt;font&gt;継続条件式&lt;/font&gt;" style="strokeWidth=1;html=1;shape=mxgraph.flowchart.decision;whiteSpace=wrap;fontSize=16;fontFamily=Lucida Console;" vertex="1" parent="1">
                    <mxGeometry x="210" y="265" width="140" height="55" as="geometry"/>
                </mxCell>
                <mxCell id="39" style="edgeStyle=orthogonalEdgeStyle;shape=connector;rounded=0;html=1;exitX=0.5;exitY=1;exitDx=0;exitDy=0;entryX=0.5;entryY=0;entryDx=0;entryDy=0;strokeColor=default;align=center;verticalAlign=middle;fontFamily=Helvetica;fontSize=11;fontColor=default;labelBackgroundColor=default;endArrow=open;endFill=0;curved=0;" edge="1" parent="1" source="34" target="36">
                    <mxGeometry relative="1" as="geometry"/>
                </mxCell>
                <mxCell id="34" value="処理" style="rounded=0;whiteSpace=wrap;html=1;fontSize=16;fontFamily=Lucida Console;" vertex="1" parent="1">
                    <mxGeometry x="230" y="340" width="100" height="30" as="geometry"/>
                </mxCell>
                <mxCell id="40" style="edgeStyle=orthogonalEdgeStyle;shape=connector;curved=0;rounded=0;html=1;exitX=0.5;exitY=1;exitDx=0;exitDy=0;strokeColor=default;align=center;verticalAlign=middle;fontFamily=Helvetica;fontSize=11;fontColor=default;labelBackgroundColor=default;endArrow=open;endFill=0;" edge="1" parent="1" source="36">
                    <mxGeometry relative="1" as="geometry">
                        <mxPoint x="280" y="250" as="targetPoint"/>
                        <mxPoint x="279.67" y="400" as="sourcePoint"/>
                        <Array as="points">
                            <mxPoint x="280" y="440"/>
                            <mxPoint x="200" y="440"/>
                            <mxPoint x="200" y="250"/>
                        </Array>
                    </mxGeometry>
                </mxCell>
                <mxCell id="36" value="再設定式" style="rounded=0;whiteSpace=wrap;html=1;fontSize=16;fontFamily=Lucida Console;" vertex="1" parent="1">
                    <mxGeometry x="230" y="390" width="100" height="30" as="geometry"/>
                </mxCell>
                <mxCell id="37" style="edgeStyle=none;html=1;exitX=0.5;exitY=1;exitDx=0;exitDy=0;entryX=0.5;entryY=0;entryDx=0;entryDy=0;entryPerimeter=0;endArrow=open;endFill=0;" edge="1" parent="1" source="32" target="33">
                    <mxGeometry relative="1" as="geometry"/>
                </mxCell>
            </root>
        </mxGraphModel>
    </diagram>
</mxfile>